# xmcd
#
# Track frame offsets: 
#        150
#        11940
#        22674
#        38433
#        55066
#        71125
#        83930
#        96155
#        107739
#        120628
#        134235
#
# Disc length: 1931 seconds
#
# Revision: 0
# Processed by: cddbd v1.5.1PL0 Copyright (c) Steve Scherf et al.
# Submitted via: ExactAudioCopy v0.95a5
#
DISCID=9007890b
DTITLE=Lewis Phillips - Empty Fields
DYEAR=2000
DGENRE=Bluegrass
TTITLE0=Faith Like That
TTITLE1=Water To A Drowning Man
TTITLE2=Brand New Song
TTITLE3=Salena
TTITLE4=Mary Dear
TTITLE5=My Wall Came Tumbling Down
TTITLE6=Theres Never An Unguarded Moment
TTITLE7=Jesus Put It All Together
TTITLE8=If It's God Made ( It's Got To Be Good)
TTITLE9=Empty Fields
TTITLE10=A Walk To Calvary
EXTD=
EXTT0=
EXTT1=
EXTT2=
EXTT3=
EXTT4=
EXTT5=
EXTT6=
EXTT7=
EXTT8=
EXTT9=
EXTT10=
PLAYORDER=
